<?xml version="1.0" encoding="utf-8"?>
<!-- Generator: Adobe Illustrator 24.1.2, SVG Export Plug-In . SVG Version: 6.00 Build 0)  -->
<svg version="1.1" id="Layer_1" xmlns="http://www.w3.org/2000/svg" xmlns:xlink="http://www.w3.org/1999/xlink" x="0px" y="0px"
	 viewBox="0 0 1000 800" style="enable-background:new 0 0 1000 800;" xml:space="preserve">
<style type="text/css">
	.st0{fill:#B3B3B3;}
	.st1{fill:#1A1A1A;}
</style>
<g>
	<g>
		<polygon class="st0" points="389.65,201.78 370.42,207.75 364.86,223.62 378.45,221.18 		"/>
		<polygon class="st0" points="352.78,202.34 342.67,205.64 342.67,214.81 350.9,212.7 		"/>
		<polygon class="st0" points="294.35,237.87 310.35,222.58 308.24,205.17 293.18,216.7 		"/>
		<polygon class="st0" points="295.76,191.99 294.82,180.23 287.29,190.34 288.94,198.34 		"/>
		<polygon class="st0" points="261.88,241.09 255.42,229.01 247.29,243.98 255.16,258.51 		"/>
		<polygon class="st0" points="238.54,290.95 245.76,299.04 247.17,285.78 239.66,276.55 		"/>
		<path class="st0" d="M655.76,405.5c0,0-22.65-18.79-56-20.88c-52.47-3.29-68.71,30.12-99.76,34.01
			c-31.06-3.89-47.29-37.3-99.76-34.01c-10.05,0.63-19.11,2.78-26.89,5.47l-9.49-5.57l10.1-6.17l9.73-21.49l-27.61-2.35l-1.13,0.93
			l0.66-9.41l-15.84-20.08l-19.29,21.33l0.12,10.56l-5.77-4.28l-5.8,1.31l-0.71-27.35l11.29-44l29.41-40.94l3.06-21.18l-26.12,14.59
			l-24.94,46.82l-3.36,25.36l-2.71,2.33l-1.36,13.63l2.2-1.8l-0.66,4.96c0,0,2.61,15.06,5.09,29.57l-9.21,2.08l-3.61-7.78l2.18-6.53
			l-2.51-20.39l-2.81,4.67l0.93-41.69l7.53-31.37l-6.59-27.92l-16.94,27.92l-1.74,30.27l-6.11-12.39l-9.1,32.63l5.96,56.78
			l8.01,14.82l2.03,23.76l25.73,34.82l9.19,3.3l13.36,7.87l1.02-0.25l-3.33,5.86l4,17.84l19.03-7.78l3.19-6.84l2.39,4.55l5.17,1.19
			c4.55,23.42,14.64,49.52,36.96,74.12c44.24-33.41,100.47-40,115.06-40s70.82,6.59,115.06,40
			C659.06,487.91,655.53,433.56,655.76,405.5z M313.38,411.99l1.69,2.03l-0.24,0.56l0.54,1.36l-1.01,4.29l4.74,5.2l0.02,0.04
			l-3.62-0.12l-17.24-16.41l15.01,3.14L313.38,411.99z M303.4,383.93l-0.71,0.17l-0.25-0.55L303.4,383.93z M288.94,382.58l7.13,8.58
			l-4.78,11.15l-3.92-3.73l-4.8-15.14l-1.16-14.35l1.09-3.26L288.94,382.58z M292.71,424.62l-6.05-12.32l21.27,17.28l-2.4,2.29
			L292.71,424.62z M423.76,470.97c-33.9-0.33-44.24-34.4-44.24-34.4s20.93-11.07,38.35-9.19c22.35,2.41,39.76,15.59,51.53,32.06
			C469.41,459.44,448,471.21,423.76,470.97z M576.24,470.97c-24.24,0.24-45.65-11.53-45.65-11.53
			c11.76-16.47,29.18-29.65,51.53-32.06c17.42-1.88,38.35,9.19,38.35,9.19S610.13,470.64,576.24,470.97z"/>
	</g>
	<g>
		<g>
			<path class="st1" d="M192.27,533.92v-23.19c0-2.06,0.4-4.02,1.19-5.87c0.79-1.85,1.89-3.49,3.29-4.91
				c1.4-1.42,3.04-2.56,4.93-3.42c1.89-0.86,3.91-1.28,6.08-1.28h23.19c2.06,0,4.02,0.4,5.87,1.21c1.85,0.81,3.47,1.9,4.87,3.29
				c1.4,1.39,2.52,3.02,3.36,4.91c0.84,1.89,1.3,3.92,1.38,6.08h-7.74c0-2.17-0.75-4-2.25-5.5c-1.5-1.5-3.33-2.25-5.49-2.25h-23.19
				c-2.17,0-4,0.75-5.49,2.25c-1.5,1.5-2.25,3.33-2.25,5.5v23.19c0,2.17,0.75,4,2.25,5.49c1.5,1.5,3.33,2.25,5.49,2.25h23.19
				c2.17,0,4-0.75,5.49-2.25c1.5-1.5,2.25-3.33,2.25-5.49v-7.7h-23.23v-7.74h30.97v15.45c0,2.06-0.4,4.03-1.21,5.89
				c-0.81,1.86-1.91,3.5-3.3,4.91c-1.4,1.41-3.03,2.54-4.91,3.4c-1.88,0.86-3.9,1.28-6.06,1.28h-23.19c-2.06,0-4.04-0.4-5.93-1.19
				s-3.54-1.89-4.97-3.29c-1.42-1.4-2.54-3.04-3.36-4.93C192.68,538.12,192.27,536.09,192.27,533.92z"/>
			<path class="st1" d="M253.34,549.41v-38.67c0-2.06,0.4-4.02,1.21-5.87c0.81-1.85,1.9-3.49,3.29-4.91
				c1.38-1.42,3.02-2.56,4.91-3.42c1.89-0.86,3.91-1.28,6.08-1.28h23.19c2.06,0,4.03,0.4,5.89,1.21c1.86,0.81,3.49,1.9,4.87,3.29
				c1.38,1.39,2.5,3.02,3.36,4.91c0.86,1.89,1.31,3.92,1.36,6.08v38.67h-7.74v-15.48h-38.67v15.48H253.34z M261.08,526.22h38.67
				v-15.48c0-2.17-0.75-4-2.25-5.5c-1.5-1.5-3.33-2.25-5.49-2.25h-23.19c-2.17,0-4,0.75-5.49,2.25c-1.5,1.5-2.25,3.33-2.25,5.5
				V526.22z"/>
			<path class="st1" d="M315.2,549.41v-54.16h7.74l23.23,33.5l23.19-33.5h7.74v54.16h-7.74v-40.29l-23.19,33.5l-23.23-33.5v40.29
				H315.2z"/>
			<path class="st1" d="M384.8,549.41v-54.16h7.74v54.16H384.8z"/>
			<path class="st1" d="M400.24,549.41v-54.16h7.74l38.67,41.01v-41.01h7.74v54.16h-7.74l-38.67-41.62v41.62H400.24z"/>
			<path class="st1" d="M462.1,549.41v-38.67c0-2.06,0.4-4.02,1.21-5.87c0.81-1.85,1.9-3.49,3.29-4.91
				c1.38-1.42,3.02-2.56,4.91-3.42c1.89-0.86,3.91-1.28,6.08-1.28h23.19c2.06,0,4.03,0.4,5.89,1.21c1.86,0.81,3.49,1.9,4.87,3.29
				c1.38,1.39,2.5,3.02,3.36,4.91c0.86,1.89,1.31,3.92,1.36,6.08v38.67h-7.74v-15.48h-38.67v15.48H462.1z M469.84,526.22h38.67
				v-15.48c0-2.17-0.75-4-2.25-5.5c-1.5-1.5-3.33-2.25-5.5-2.25h-23.19c-2.17,0-4,0.75-5.49,2.25c-1.5,1.5-2.25,3.33-2.25,5.5
				V526.22z"/>
			<path class="st1" d="M517.81,503v-7.74h54.15V503h-23.23v46.41h-7.74V503H517.81z"/>
			<path class="st1" d="M573.47,533.92v-23.19c0-2.12,0.41-4.11,1.23-5.99c0.82-1.88,1.93-3.51,3.32-4.91s3.04-2.51,4.93-3.34
				c1.89-0.83,3.89-1.25,6-1.25h23.19c2.06,0,4.02,0.42,5.87,1.25c1.85,0.83,3.49,1.94,4.91,3.34s2.56,3.03,3.42,4.91
				c0.86,1.88,1.29,3.87,1.29,5.99v23.19c0,2.11-0.42,4.12-1.25,6c-0.83,1.89-1.94,3.52-3.34,4.91c-1.4,1.38-3.03,2.49-4.91,3.32
				c-1.88,0.83-3.87,1.25-5.99,1.25h-23.19c-2.17,0-4.19-0.4-6.08-1.19s-3.53-1.89-4.93-3.29c-1.4-1.4-2.49-3.04-3.29-4.93
				C573.87,538.12,573.47,536.09,573.47,533.92z M581.21,533.92c0,2.17,0.75,4,2.25,5.49c1.5,1.5,3.33,2.25,5.49,2.25h23.19
				c2.16,0,4-0.75,5.49-2.25c1.5-1.5,2.25-3.33,2.25-5.49v-23.19c0-2.17-0.75-4-2.25-5.5s-3.33-2.25-5.49-2.25h-23.19
				c-2.17,0-4,0.75-5.49,2.25c-1.5,1.5-2.25,3.33-2.25,5.5V533.92z"/>
			<path class="st1" d="M634.54,549.41v-54.16h38.67c2.01,0,3.96,0.4,5.85,1.21c1.89,0.81,3.54,1.9,4.95,3.29
				c1.41,1.39,2.54,3.02,3.4,4.91c0.86,1.89,1.28,3.92,1.28,6.08v7.74c0,1.66-0.26,3.25-0.77,4.76s-1.25,2.91-2.21,4.21
				c-0.96,1.3-2.09,2.44-3.4,3.44c-1.31,1-2.77,1.76-4.38,2.28l10.76,10.76v5.48h-5.48l-15.48-15.48h-25.45v15.48H634.54z
				 M642.28,526.22h30.93c2.17,0,4-0.75,5.49-2.25s2.25-3.33,2.25-5.5v-7.74c0-2.17-0.75-4-2.25-5.5s-3.33-2.25-5.49-2.25h-30.93
				V526.22z"/>
			<path class="st1" d="M725.78,549.41v-11.59c0-2.06,0.4-4.03,1.19-5.89c0.79-1.86,1.89-3.5,3.29-4.91c1.4-1.41,3.04-2.54,4.93-3.4
				c1.89-0.86,3.92-1.28,6.08-1.28h23.19c2.17,0,4-0.75,5.5-2.25s2.25-3.33,2.25-5.5v-3.85c0-2.17-0.75-4-2.25-5.5
				s-3.33-2.25-5.5-2.25h-23.19c-2.17,0-4,0.75-5.49,2.25c-1.5,1.5-2.25,3.33-2.25,5.5h-7.74c0-2.06,0.4-4.02,1.19-5.87
				s1.89-3.49,3.29-4.91c1.4-1.42,3.04-2.56,4.93-3.42c1.89-0.86,3.92-1.28,6.08-1.28h23.19c2.01,0,3.96,0.4,5.83,1.21
				c1.88,0.81,3.52,1.9,4.95,3.29c1.42,1.39,2.56,3.02,3.42,4.91c0.86,1.89,1.28,3.92,1.28,6.08v3.85c0,2.06-0.4,4.03-1.21,5.89
				s-1.91,3.5-3.3,4.91c-1.4,1.41-3.03,2.54-4.91,3.4c-1.88,0.86-3.9,1.28-6.06,1.28h-23.19c-2.17,0-4,0.75-5.49,2.25
				c-1.5,1.5-2.25,3.33-2.25,5.5v3.85h46.41v7.74H725.78z"/>
			<path class="st1" d="M783.75,518.48v-7.74l15.48-15.48h7.74v54.16h-7.74v-43.24l-12.31,12.31H783.75z"/>
		</g>
		<g>
			<path class="st1" d="M321.37,584.7v-18.67h2.67v8.01h13.33v-8.01h2.67v18.67h-2.67v-8h-13.33v8H321.37z"/>
			<path class="st1" d="M342.7,584.7v-13.33c0-0.71,0.14-1.39,0.42-2.03c0.28-0.64,0.66-1.2,1.13-1.69s1.04-0.88,1.69-1.18
				c0.65-0.29,1.35-0.44,2.1-0.44h8c0.71,0,1.39,0.14,2.03,0.42c0.64,0.28,1.2,0.66,1.68,1.13c0.48,0.48,0.86,1.04,1.16,1.69
				c0.29,0.65,0.45,1.35,0.47,2.1v13.33h-2.67v-5.34h-13.33v5.34H342.7z M345.36,576.71h13.33v-5.34c0-0.75-0.26-1.38-0.77-1.89
				c-0.52-0.52-1.15-0.78-1.89-0.78h-8c-0.75,0-1.38,0.26-1.89,0.78s-0.77,1.15-0.77,1.89V576.71z"/>
			<path class="st1" d="M364.02,584.7v-18.67h2.67v16h8.01v-16h2.66v16h8.01v-16h2.67v18.67H364.02z"/>
			<path class="st1" d="M390.69,584.7v-18.67h2.67v14.8l13.33-14.8h2.67v18.67h-2.67v-15.07l-13.33,15.07H390.69z"/>
			<path class="st1" d="M422.68,584.7v-18.67h2.67l8.01,11.55l7.99-11.55h2.67v18.67h-2.67v-13.89l-7.99,11.55l-8.01-11.55v13.89
				H422.68z"/>
			<path class="st1" d="M446.68,584.7v-13.33c0-0.71,0.14-1.39,0.42-2.03c0.28-0.64,0.66-1.2,1.13-1.69s1.04-0.88,1.69-1.18
				c0.65-0.29,1.35-0.44,2.1-0.44h8c0.71,0,1.39,0.14,2.03,0.42c0.64,0.28,1.2,0.66,1.68,1.13c0.48,0.48,0.86,1.04,1.16,1.69
				c0.29,0.65,0.45,1.35,0.47,2.1v13.33h-2.67v-5.34h-13.33v5.34H446.68z M449.35,576.71h13.33v-5.34c0-0.75-0.26-1.38-0.77-1.89
				c-0.52-0.52-1.15-0.78-1.89-0.78h-8c-0.75,0-1.38,0.26-1.89,0.78s-0.77,1.15-0.77,1.89V576.71z"/>
			<path class="st1" d="M467.75,579.36v-7.99c0-0.71,0.14-1.39,0.41-2.03c0.27-0.64,0.65-1.2,1.13-1.68
				c0.48-0.48,1.05-0.87,1.7-1.17c0.65-0.29,1.35-0.45,2.1-0.47h7.99c0.71,0,1.39,0.14,2.02,0.42c0.64,0.28,1.2,0.66,1.68,1.13
				s0.87,1.04,1.16,1.69c0.29,0.65,0.45,1.35,0.48,2.1h-2.67c0-0.75-0.26-1.38-0.77-1.89s-1.15-0.78-1.89-0.78h-7.99
				c-0.75,0-1.38,0.26-1.89,0.78s-0.77,1.15-0.77,1.89v7.99c0,0.75,0.26,1.38,0.77,1.89c0.52,0.52,1.15,0.78,1.89,0.78h7.99
				c0.75,0,1.38-0.26,1.89-0.78c0.52-0.52,0.77-1.15,0.77-1.89h2.67c0,0.71-0.14,1.39-0.42,2.03c-0.28,0.64-0.66,1.21-1.14,1.69
				s-1.05,0.88-1.69,1.17c-0.65,0.29-1.34,0.44-2.09,0.44h-7.99c-0.71,0-1.39-0.14-2.04-0.41c-0.65-0.27-1.22-0.65-1.71-1.13
				c-0.49-0.48-0.88-1.05-1.16-1.7S467.75,580.11,467.75,579.36z"/>
			<path class="st1" d="M488.53,584.7v-18.67h2.67v8.01h4.24l7.99-8.01h3.76l-9.34,9.34l9.34,9.34h-3.76l-7.99-8h-4.24v8H488.53z"/>
			<path class="st1" d="M508.53,584.7v-18.67h2.67v14.8l13.33-14.8h2.67v18.67h-2.67v-15.07L511.2,584.7H508.53z"/>
			<path class="st1" d="M540.52,584.7v-18.67h2.67v14.8l13.33-14.8h2.67v18.67h-2.67v-15.07l-13.33,15.07H540.52z"/>
			<path class="st1" d="M571.19,568.7v-2.67h18.67v2.67h-8.01v16h-2.67v-16H571.19z"/>
			<path class="st1" d="M590.64,584.7v-13.33c0-0.71,0.14-1.39,0.42-2.03c0.28-0.64,0.66-1.2,1.13-1.69
				c0.48-0.49,1.04-0.88,1.69-1.18c0.65-0.29,1.35-0.44,2.1-0.44h7.99c0.71,0,1.39,0.14,2.03,0.42c0.64,0.28,1.2,0.66,1.68,1.13
				s0.86,1.04,1.16,1.69s0.45,1.35,0.47,2.1v13.33h-2.67v-5.34h-13.33v5.34H590.64z M593.31,576.71h13.33v-5.34
				c0-0.75-0.26-1.38-0.78-1.89s-1.15-0.78-1.89-0.78h-7.99c-0.75,0-1.38,0.26-1.89,0.78c-0.52,0.52-0.78,1.15-0.78,1.89V576.71z"/>
			<path class="st1" d="M611.97,584.7v-18.67h2.67v14.8l13.33-14.8h2.67v18.67h-2.67v-15.07l-13.33,15.07H611.97z M615.98,560.71
				h2.66c0,0.75,0.26,1.38,0.77,1.89s1.15,0.77,1.89,0.77c0.75,0,1.38-0.26,1.89-0.77s0.77-1.15,0.77-1.89h2.67
				c0,0.71-0.14,1.39-0.42,2.02c-0.28,0.64-0.66,1.2-1.13,1.69c-0.48,0.49-1.04,0.88-1.69,1.17c-0.65,0.29-1.35,0.44-2.1,0.44
				c-0.73,0-1.41-0.14-2.05-0.41s-1.2-0.65-1.68-1.13s-0.86-1.05-1.15-1.69C616.14,562.15,615.99,561.45,615.98,560.71z"/>
			<path class="st1" d="M633.29,584.7v-18.67h2.67v8.01h13.33v-8.01h2.67v18.67h-2.67v-8h-13.33v8H633.29z"/>
			<path class="st1" d="M654.62,584.7v-18.67h2.67v6.67h10.66c0.71,0,1.39,0.14,2.03,0.42c0.64,0.28,1.2,0.66,1.68,1.13
				c0.48,0.48,0.86,1.04,1.16,1.69c0.29,0.65,0.45,1.35,0.47,2.1v1.33c0,0.71-0.14,1.39-0.41,2.03c-0.27,0.64-0.65,1.21-1.13,1.69
				s-1.05,0.88-1.7,1.17s-1.35,0.44-2.1,0.44H654.62z M657.29,582.03h10.66c0.75,0,1.38-0.26,1.89-0.78
				c0.52-0.52,0.78-1.15,0.78-1.89v-1.33c0-0.75-0.26-1.38-0.78-1.89c-0.52-0.52-1.15-0.77-1.89-0.77h-10.66V582.03z M675.96,584.7
				v-18.67h2.67v18.67H675.96z"/>
		</g>
		<g>
			<path class="st0" d="M429.62,610.7v-7.99c0-0.71,0.14-1.39,0.41-2.03c0.27-0.64,0.65-1.2,1.13-1.69c0.48-0.49,1.05-0.88,1.7-1.18
				c0.65-0.29,1.35-0.44,2.1-0.44h7.99c0.71,0,1.39,0.14,2.02,0.42c0.64,0.28,1.2,0.66,1.68,1.13s0.87,1.04,1.16,1.69
				c0.29,0.65,0.45,1.35,0.48,2.1h-2.67c0-0.75-0.26-1.38-0.77-1.89s-1.15-0.78-1.89-0.78h-7.99c-0.75,0-1.38,0.26-1.89,0.78
				s-0.77,1.15-0.77,1.89v7.99c0,0.75,0.26,1.38,0.77,1.89c0.52,0.52,1.15,0.78,1.89,0.78h7.99c0.75,0,1.38-0.26,1.89-0.78
				c0.52-0.52,0.77-1.15,0.77-1.89v-2.66h-8.01v-2.67h10.68v5.33c0,0.71-0.14,1.39-0.42,2.03c-0.28,0.64-0.66,1.21-1.14,1.69
				s-1.05,0.88-1.69,1.17c-0.65,0.29-1.34,0.44-2.09,0.44h-7.99c-0.71,0-1.39-0.14-2.04-0.41c-0.65-0.27-1.22-0.65-1.71-1.13
				c-0.49-0.48-0.88-1.05-1.16-1.7S429.62,611.44,429.62,610.7z"/>
			<path class="st0" d="M450.68,616.04V602.7c0-0.71,0.14-1.39,0.42-2.03c0.28-0.64,0.66-1.2,1.13-1.69s1.04-0.88,1.69-1.18
				c0.65-0.29,1.35-0.44,2.1-0.44h8c0.71,0,1.39,0.14,2.03,0.42c0.64,0.28,1.2,0.66,1.68,1.13c0.48,0.48,0.86,1.04,1.16,1.69
				c0.29,0.65,0.45,1.35,0.47,2.1v13.33h-2.67v-5.34h-13.33v5.34H450.68z M453.35,608.04h13.33v-5.34c0-0.75-0.26-1.38-0.77-1.89
				c-0.52-0.52-1.15-0.78-1.89-0.78h-8c-0.75,0-1.38,0.26-1.89,0.78s-0.77,1.15-0.77,1.89V608.04z"/>
			<path class="st0" d="M472.01,616.04v-18.67h2.67l8.01,11.55l7.99-11.55h2.67v18.67h-2.67v-13.89l-7.99,11.55l-8.01-11.55v13.89
				H472.01z"/>
			<path class="st0" d="M496,616.04v-18.67h2.67v18.67H496z"/>
			<path class="st0" d="M501.33,616.04v-18.67H504l13.33,14.14v-14.14H520v18.67h-2.67L504,601.69v14.35H501.33z"/>
			<path class="st0" d="M522.66,616.04v-2.67h2.67v2.67H522.66z"/>
			<path class="st0" d="M527.98,616.04v-18.67h2.67l8.01,11.55l8-11.55h2.67v18.67h-2.67v-13.89l-8,11.55l-8.01-11.55v13.89H527.98z
				"/>
			<path class="st0" d="M551.98,616.04v-18.67h18.67v2.67h-16v5.34h13.33v2.67h-13.33v5.33h16v2.67H551.98z"/>
		</g>
	</g>
</g>
</svg>
